<svg width="291" height="63" viewBox="0 0 291 63" fill="none" xmlns="http://www.w3.org/2000/svg">
<path d="M0.594604 2.03589H290.393" stroke="#4FADAC" stroke-miterlimit="10"/>
<path d="M1.17489 3.57815C1.49537 3.57815 1.75517 2.88766 1.75517 2.0359C1.75517 1.18414 1.49537 0.493652 1.17489 0.493652C0.854408 0.493652 0.594604 1.18414 0.594604 2.0359C0.594604 2.88766 0.854408 3.57815 1.17489 3.57815Z" fill="#4FADAC"/>
<path d="M290.12 3.57815C290.44 3.57815 290.7 2.88766 290.7 2.0359C290.7 1.18414 290.44 0.493652 290.12 0.493652C289.799 0.493652 289.539 1.18414 289.539 2.0359C289.539 2.88766 289.799 3.57815 290.12 3.57815Z" fill="#4FADAC"/>
<path d="M1.17489 33.2437C1.49537 33.2437 1.75517 32.5532 1.75517 31.7014C1.75517 30.8497 1.49537 30.1592 1.17489 30.1592C0.854408 30.1592 0.594604 30.8497 0.594604 31.7014C0.594604 32.5532 0.854408 33.2437 1.17489 33.2437Z" fill="#4FADAC"/>
<path d="M176.965 33.2437C177.286 33.2437 177.546 32.5532 177.546 31.7014C177.546 30.8497 177.286 30.1592 176.965 30.1592C176.645 30.1592 176.385 30.8497 176.385 31.7014C176.385 32.5532 176.645 33.2437 176.965 33.2437Z" fill="#4FADAC"/>
<path d="M180.959 18.3655C181.279 18.3655 181.539 17.675 181.539 16.8233C181.539 15.9715 181.279 15.281 180.959 15.281C180.638 15.281 180.379 15.9715 180.379 16.8233C180.379 17.675 180.638 18.3655 180.959 18.3655Z" fill="#4FADAC"/>
<path d="M290.12 33.2437C290.44 33.2437 290.7 32.5532 290.7 31.7014C290.7 30.8497 290.44 30.1592 290.12 30.1592C289.799 30.1592 289.539 30.8497 289.539 31.7014C289.539 32.5532 289.799 33.2437 290.12 33.2437Z" fill="#4FADAC"/>
<path d="M6.73871 16.8232H174.849L183.519 31.7014H290.12" stroke="#4FADAC" stroke-miterlimit="10"/>
<path d="M290.12 46.5798H122.009L113.339 61.458H4.58832" stroke="#4FADAC" stroke-miterlimit="10"/>
<path d="M6.73873 18.3655C7.05921 18.3655 7.31901 17.675 7.31901 16.8233C7.31901 15.9715 7.05921 15.281 6.73873 15.281C6.41825 15.281 6.15845 15.9715 6.15845 16.8233C6.15845 17.675 6.41825 18.3655 6.73873 18.3655Z" fill="#4FADAC"/>
<path d="M290.12 18.3655C290.44 18.3655 290.7 17.675 290.7 16.8233C290.7 15.9715 290.44 15.281 290.12 15.281C289.799 15.281 289.539 15.9715 289.539 16.8233C289.539 17.675 289.799 18.3655 290.12 18.3655Z" fill="#4FADAC"/>
<path d="M125.355 63C125.675 63 125.935 62.3095 125.935 61.4578C125.935 60.606 125.675 59.9155 125.355 59.9155C125.034 59.9155 124.774 60.606 124.774 61.4578C124.774 62.3095 125.034 63 125.355 63Z" fill="#4FADAC"/>
<path d="M290.12 63C290.44 63 290.7 62.3095 290.7 61.4578C290.7 60.606 290.44 59.9155 290.12 59.9155C289.799 59.9155 289.539 60.606 289.539 61.4578C289.539 62.3095 289.799 63 290.12 63Z" fill="#4FADAC"/>
<path d="M290.12 48.1221C290.44 48.1221 290.7 47.4316 290.7 46.5798C290.7 45.7281 290.44 45.0376 290.12 45.0376C289.799 45.0376 289.539 45.7281 289.539 46.5798C289.539 47.4316 289.799 48.1221 290.12 48.1221Z" fill="#4FADAC"/>
<path d="M177.443 31.7012H1.17487" stroke="#4FADAC" stroke-miterlimit="10"/>
<path d="M290.324 16.8232H181.095" stroke="#4FADAC" stroke-miterlimit="10"/>
<path d="M289.71 61.4578H125.355" stroke="#4FADAC" stroke-miterlimit="10"/>
<path d="M9.05988 48.1221C9.38036 48.1221 9.64016 47.4316 9.64016 46.5798C9.64016 45.7281 9.38036 45.0376 9.05988 45.0376C8.7394 45.0376 8.47961 45.7281 8.47961 46.5798C8.47961 47.4316 8.7394 48.1221 9.05988 48.1221Z" fill="#4FADAC"/>
<path d="M4.58828 63C4.90876 63 5.16856 62.3095 5.16856 61.4578C5.16856 60.606 4.90876 59.9155 4.58828 59.9155C4.2678 59.9155 4.008 60.606 4.008 61.4578C4.008 62.3095 4.2678 63 4.58828 63Z" fill="#4FADAC"/>
<path d="M113.305 48.1221C113.626 48.1221 113.886 47.4316 113.886 46.5798C113.886 45.7281 113.626 45.0376 113.305 45.0376C112.985 45.0376 112.725 45.7281 112.725 46.5798C112.725 47.4316 112.985 48.1221 113.305 48.1221Z" fill="#4FADAC"/>
<path d="M113.681 46.5798H9.05988" stroke="#4FADAC" stroke-miterlimit="10"/>
</svg>
