<svg width="291" height="63" viewBox="0 0 291 63" fill="none" xmlns="http://www.w3.org/2000/svg">
<path d="M290.105 2.03589H0.30719" stroke="#4FADAC" stroke-miterlimit="10"/>
<path d="M289.525 3.57815C289.846 3.57815 290.105 2.88766 290.105 2.0359C290.105 1.18414 289.846 0.493652 289.525 0.493652C289.205 0.493652 288.945 1.18414 288.945 2.0359C288.945 2.88766 289.205 3.57815 289.525 3.57815Z" fill="#4FADAC"/>
<path d="M0.580279 3.57815C0.900758 3.57815 1.16056 2.88766 1.16056 2.0359C1.16056 1.18414 0.900758 0.493652 0.580279 0.493652C0.2598 0.493652 0 1.18414 0 2.0359C0 2.88766 0.2598 3.57815 0.580279 3.57815Z" fill="#4FADAC"/>
<path d="M289.525 33.2437C289.846 33.2437 290.105 32.5532 290.105 31.7014C290.105 30.8497 289.846 30.1592 289.525 30.1592C289.205 30.1592 288.945 30.8497 288.945 31.7014C288.945 32.5532 289.205 33.2437 289.525 33.2437Z" fill="#4FADAC"/>
<path d="M113.701 33.2437C114.021 33.2437 114.281 32.5532 114.281 31.7014C114.281 30.8497 114.021 30.1592 113.701 30.1592C113.38 30.1592 113.12 30.8497 113.12 31.7014C113.12 32.5532 113.38 33.2437 113.701 33.2437Z" fill="#4FADAC"/>
<path d="M109.707 18.3655C110.027 18.3655 110.287 17.675 110.287 16.8233C110.287 15.9715 110.027 15.281 109.707 15.281C109.386 15.281 109.127 15.9715 109.127 16.8233C109.127 17.675 109.386 18.3655 109.707 18.3655Z" fill="#4FADAC"/>
<path d="M0.580279 33.2437C0.900758 33.2437 1.16056 32.5532 1.16056 31.7014C1.16056 30.8497 0.900758 30.1592 0.580279 30.1592C0.2598 30.1592 0 30.8497 0 31.7014C0 32.5532 0.2598 33.2437 0.580279 33.2437Z" fill="#4FADAC"/>
<path d="M283.961 16.8232H115.851L107.181 31.7014H0.580261" stroke="#4FADAC" stroke-miterlimit="10"/>
<path d="M0.580261 46.5798H168.69L177.361 61.458H286.112" stroke="#4FADAC" stroke-miterlimit="10"/>
<path d="M283.927 18.3655C284.248 18.3655 284.507 17.675 284.507 16.8233C284.507 15.9715 284.248 15.281 283.927 15.281C283.607 15.281 283.347 15.9715 283.347 16.8233C283.347 17.675 283.607 18.3655 283.927 18.3655Z" fill="#4FADAC"/>
<path d="M0.580279 18.3655C0.900758 18.3655 1.16056 17.675 1.16056 16.8233C1.16056 15.9715 0.900758 15.281 0.580279 15.281C0.2598 15.281 0 15.9715 0 16.8233C0 17.675 0.2598 18.3655 0.580279 18.3655Z" fill="#4FADAC"/>
<path d="M165.311 63C165.632 63 165.892 62.3095 165.892 61.4578C165.892 60.606 165.632 59.9155 165.311 59.9155C164.991 59.9155 164.731 60.606 164.731 61.4578C164.731 62.3095 164.991 63 165.311 63Z" fill="#4FADAC"/>
<path d="M0.580279 63C0.900758 63 1.16056 62.3095 1.16056 61.4578C1.16056 60.606 0.900758 59.9155 0.580279 59.9155C0.2598 59.9155 0 60.606 0 61.4578C0 62.3095 0.2598 63 0.580279 63Z" fill="#4FADAC"/>
<path d="M0.580279 48.1221C0.900758 48.1221 1.16056 47.4316 1.16056 46.5798C1.16056 45.7281 0.900758 45.0376 0.580279 45.0376C0.2598 45.0376 0 45.7281 0 46.5798C0 47.4316 0.2598 48.1221 0.580279 48.1221Z" fill="#4FADAC"/>
<path d="M113.257 31.7012H289.525" stroke="#4FADAC" stroke-miterlimit="10"/>
<path d="M0.375488 16.8232H109.604" stroke="#4FADAC" stroke-miterlimit="10"/>
<path d="M0.95575 61.4578H165.311" stroke="#4FADAC" stroke-miterlimit="10"/>
<path d="M281.606 48.1221C281.926 48.1221 282.186 47.4316 282.186 46.5798C282.186 45.7281 281.926 45.0376 281.606 45.0376C281.285 45.0376 281.026 45.7281 281.026 46.5798C281.026 47.4316 281.285 48.1221 281.606 48.1221Z" fill="#4FADAC"/>
<path d="M286.112 63C286.432 63 286.692 62.3095 286.692 61.4578C286.692 60.606 286.432 59.9155 286.112 59.9155C285.791 59.9155 285.531 60.606 285.531 61.4578C285.531 62.3095 285.791 63 286.112 63Z" fill="#4FADAC"/>
<path d="M177.361 48.1221C177.681 48.1221 177.941 47.4316 177.941 46.5798C177.941 45.7281 177.681 45.0376 177.361 45.0376C177.04 45.0376 176.78 45.7281 176.78 46.5798C176.78 47.4316 177.04 48.1221 177.361 48.1221Z" fill="#4FADAC"/>
<path d="M177.019 46.5798H281.606" stroke="#4FADAC" stroke-miterlimit="10"/>
</svg>
